<?xml version="1.0" encoding="utf-8"?>
<!-- Designed by Vexels.com - 2016 All Rights Reserved - https://vexels.com/terms-and-conditions/  -->

<svg version="1.1" id="Layer_1" xmlns="http://www.w3.org/2000/svg" xmlns:xlink="http://www.w3.org/1999/xlink" x="0px" y="0px"
	 width="1200px" height="1200px" viewBox="0 0 1200 1200" enable-background="new 0 0 1200 1200" xml:space="preserve">
<g>
	<path fill="#E35079" d="M792.321,910.059c0,0,48.728,49.485,123.677,68.454c75.538,19.164,107.01-6.101,121.876-29.566
		c14.971-23.57,28.096-52.362,60.264-61.717c32.35-9.416,37.664-39.828,29.262-72.496c-8.462-32.833,13.926-80.897-26.568-108.766
		c-40.387-27.868-38.026-42.325-88.951-39.66c-50.485,2.648-84.772,9.96-84.772,9.96s124.691-31.426,165.413-72.98
		c41.281-42.038,75.569-108.509,46.898-160.765c-28.778-52.467-61.036-48.744-83.138-72.027
		c-22.01-23.297,2.906-35.831-18.437-64.261c-21.345-28.55-12.534-48.395-71.966-52.68c-58.978-4.224-122.482,27.022-157.844,81.442
		c-34.954,53.74-50.182,24.205-44.219-40.917c5.98-65.82-15.002-117.229-64.759-117.669c-49.35-0.454-54.089-29.307-85.53-63.715
		C582.054,78.211,467.49,86.43,431.052,128.347c-36.058,41.464-81.608,103.635-64.169,165.081
		c17.303,61.05,53.559,63.216,74.025,92.704c20.359,29.443,43.067,61.627,43.067,61.627s-65.518-71.799-117.289-100.38
		c-51.56-28.459-127.507-40.403-187.378-23.691c-59.175,16.501-121.271,114.928-128.203,142.04
		c-6.858,27.022,18.423,113.595,69.861,143.993c51.59,30.472,51.211,34.968,63.399,36.785
		c12.201,1.817-130.687,46.231-81.413,156.602C151.727,912.238,258.6,912.254,316.019,903.912
		c58.024-8.417,120.105-48.003,143.024-48.927c22.964-0.908-21.178-14.683-38.95,32.199
		c-17.62,46.443-25.659,120.422,14.729,160.251c40.373,39.797,46.231,53.951,63.003,39.344
		c16.819-14.684,12.384-19.831,40.782-3.967c28.398,15.911,21.798,27.96,60.173,25.749c38.572-2.119,120.256-14.819,140.496-29.276
		C759.638,1064.723,812.727,971.035,792.321,910.059z"/>
	<path fill="#FFFFFF" d="M738.279,841.149c13.154-19.466-61.097-117.229-27.854-107.57c33.303,9.657,70.709-8.599,111.612,6.948
		c41.069,15.653,19.256-1.907-18.105-24.129c-37.36-22.192-102.786-53.194-36.073-50.773c67.333,2.392,82.425-7.569,82.425-7.569
		s-183.078-62.05-119.075-79.746c64.806-17.985,121.558-89.36,141.615-94.218c20.104-4.844,30.671-38.587-29.519-6.343
		c-59.34,31.851-169.953,70.709-141.221,35.634c29.02-35.498,46.459-105.209,46.459-105.209s-76.659,88.906-97.398,61.672
		c-20.739-27.338-60.81-116.533-68.545-164.852c-7.721-48.699-6.873-78.9-21.677-90.752c-14.852-11.854-5.177,44.837-0.031,93.068
		c5.117,47.941,14.351,150.032-11.111,163.717c-25.326,13.64-43.174,8.825-54.239-9.612c-11.021-18.454-66.728-59.765-66.728-59.765
		s21.117,46.459,29.564,88.602c8.417,41.948,7.372,51.395-40.342,37.648c-47.488-13.669-100.275-23.281-112.369-29.654
		c-12.08-6.419,79.444,48.865,102.316,75.719c22.874,26.84,20.316,26.492-12.231,43.007c-32.26,16.441-60.219,17-2.877,27.673
		c57.767,10.747,82.865,16.727,30.564,48.728c-51.65,31.579-106.813,80.323-121.8,80.263c-14.942-0.031,44.793,2.376,110.144-19.589
		c66.304-22.344,83.546-38.344,73.706,25.038c-9.702,62.642-22.48,85.637-22.48,85.637s30.579-22.48,50.122-58.373
		c19.725-36.225,41.268-86.544,50.773-36.133c9.447,50.061,33.168,108.903,38.829,125.796
		c5.601,16.909,3.209-170.863,47.473-126.735C694.453,813.417,728.302,855.894,738.279,841.149z"/>
	<path fill="#E35079" d="M706.579,642.449c0,0,13.655,37.874-16.242,62.095c-29.595,24.01-39.086,15.517-39.086,15.517
		s-39.36,62.097-90.041,7.797c-53.981-3.392-116.926-85.107-79.081-100.82c-58.645-29.609-7.628-93.764,30.897-88.481
		c-7.342-27.43,53.634-31.244,74.19-26.067c20.618,5.222,43.219,37.406,43.219,37.406s16.698-26.854,46.641,11.232
		C706.943,599.124,728.15,621.468,706.579,642.449z"/>
	<path fill="#F18500" d="M673.882,638.211c-0.333,2.603-21.149-1.349-24.57,18.149c-3.376,19.377-11.944,42.948-11.944,42.948
		s-13.246-11.051-27.657,1.665c-10.778-16.41-42.447-18.56-52.029-6.828c2.513-20.965-2.786-22.57-11.232-35.317
		c-8.493-12.761-10.764-24.644-17.591-28.096c-6.873-3.406-22.147-4.768-26.568-5.419c-4.45-0.636,8.947-6.979,16.819-12.443
		c7.887-5.495,14.094-3.785,12.322-19.786c-1.786-16.061-2.497-33.652,1.846-31.426c4.3,2.285,35.772,37.527,29.248,23.281
		c-6.556-14.275-6.676-20.936,6.858-19.059c13.533,1.877,39.131,3.725,47.911-0.09c8.809-3.83,19.482-22.587,23.691-4.314
		c4.224,18.285-8.205,28.293-17.378,35.377c-9.219,7.069-4.602,14.396,8.825,10.429c13.474-3.95,5.057,4.088,8.191,8.659
		c3.088,4.618-0.622,4.92,11.172,6.571C663.632,624.207,676.44,618.515,673.882,638.211z"/>
	<path fill="#FFD400" d="M627.438,661.705c5.842-2.452,8.279-14.563,9.718-18.499c1.423-3.981,4.437-6.07-5.404-8.265
		c-9.87-2.255-15.683,0.242-18.392-0.136c-2.741-0.408-6.631-5.934-6.631-5.934s-9.431-5.48-12.928-6.842
		c-3.542-1.318-13.942-6.131-20.118-0.349c-6.176,5.723-9.431,10.265-6.979,12.277c2.497,2.014,8.568,4.542,19.786,2.817
		c11.156-1.711,2.088-2.21,11.156-1.711c9.173,0.454,14.107-2.148,13.367,3.573c-0.651,5.692,2.694,7.827-1.998,8.811
		c-4.723,1.014,0.878,7.599,6.191,9.188C620.505,658.223,627.438,661.705,627.438,661.705z"/>
</g>
</svg>
